<svg xmlns="http://www.w3.org/2000/svg" viewBox="0 0 192.74 185.46"><defs><style>.cls-1{fill:#9e9ea6;}.cls-2{fill:#3a3a51;}.cls-3{fill:#f7f7f7;}.cls-4{fill:#ffcfc4;}.cls-5{fill:#cf304e;}.cls-6{fill:#f09a92;}.cls-7{fill:#383d4a;}.cls-8{fill:#4a5061;}.cls-9{fill:#a3263d;}.cls-10{fill:#ffc64a;}</style></defs><title>Asset 1</title><g id="Layer_2" data-name="Layer 2"><g id="OBJECTS"><path class="cls-1" d="M27.34,171.8a13.67,13.67,0,1,1-13.67-13.67A13.67,13.67,0,0,1,27.34,171.8Z"/><path class="cls-2" d="M23,163.77l0,5,3,4L27.31,171a13.7,13.7,0,0,0-2.11-6.51Z"/><path class="cls-2" d="M24.22,180.49l0-2.27-4.75,1.52-2.92,4.06,2.15.71A13.65,13.65,0,0,0,24.22,180.49Z"/><polygon class="cls-2" points="13.67 166.36 8.51 170.11 10.48 176.18 16.86 176.18 18.83 170.11 13.67 166.36"/><path class="cls-2" d="M13.67,162l4.74-1.57-1.32-1.84a13.82,13.82,0,0,0-6.84,0L8.93,160.4Z"/><path class="cls-2" d="M10.81,183.8l-2.92-4.06-4.75-1.52,0,2.27a13.65,13.65,0,0,0,5.54,4Z"/><path class="cls-2" d="M1.37,172.78l3-4,0-5-2.16.68A13.6,13.6,0,0,0,0,171Z"/><path class="cls-3" d="M23,163.5l2,.63a13.62,13.62,0,0,0-7.53-5.47l1.22,1.71A13,13,0,0,1,23,163.5Z"/><path class="cls-3" d="M4.35,163.5a12.94,12.94,0,0,1,4.3-3.13l1.23-1.71a13.62,13.62,0,0,0-7.53,5.47Z"/><path class="cls-3" d="M22.85,168.94l-3.78,1.22-2,6.12,2.34,3.22L24.24,178a12.72,12.72,0,0,0,1.6-4.94Z"/><path class="cls-3" d="M22.77,168.71l0-5.06a12.44,12.44,0,0,0-4.19-3.05l-4.81,1.59v4l5.2,3.78Z"/><path class="cls-3" d="M13.85,184.27A15.21,15.21,0,0,1,11,184l-2,.66a13.75,13.75,0,0,0,9.3,0l-2-.66A10.2,10.2,0,0,1,13.85,184.27Z"/><path class="cls-3" d="M27.34,171.8c0-.16,0-.31,0-.45L26.09,173a12.92,12.92,0,0,1-1.65,5.06l0,2.09A13.65,13.65,0,0,0,27.34,171.8Z"/><path class="cls-3" d="M7.92,179.5l2.34-3.21-2-6.12-3.78-1.23L1.5,173A12.83,12.83,0,0,0,3.1,178Z"/><path class="cls-3" d="M11.08,183.75a12.67,12.67,0,0,0,5.18,0l3-4.11-2.33-3.22H10.46l-2.34,3.22Z"/><path class="cls-3" d="M0,171.35c0,.14,0,.29,0,.45a13.7,13.7,0,0,0,2.88,8.39l0-2.1A12.83,12.83,0,0,1,1.26,173Z"/><path class="cls-3" d="M4.54,163.65l0,5.06,3.76,1.23,5.21-3.79v-4L8.74,160.6A12.58,12.58,0,0,0,4.54,163.65Z"/><path class="cls-4" d="M138.06,47s4.69.21,5.9.36a58.34,58.34,0,0,0,12.25-.13c5.25-.68,24.33-3.89,25.81-4.4a69.89,69.89,0,0,0,7.72-3.14,12.74,12.74,0,0,0,2.59-2.4c.25-.42-.15-3.16,0-4.3.11-.41.79-1.8.16-2.34s-1.5-1.13-1.75-1.07-2.25.95-2.25.95a9,9,0,0,0-1.83-.48,2.44,2.44,0,0,0-1.82.83c-.46.6-2.49,3.77-3.13,4.48s-4.19,1.35-11.07,1.55-12.53-1.37-19.15-1.13c-5.21.18-7.67.09-7.67.09-3.11-1.29-9.18-3-9.18-3L129,44.54S133.9,46.08,138.06,47Z"/><path class="cls-4" d="M69.84,46.4s-3.35,3.28-4.29,4.06a59.4,59.4,0,0,0-8.27,9C54.19,63.8,43.5,79.93,42.86,81.36a69.6,69.6,0,0,0-3,7.78,12.77,12.77,0,0,0,0,3.52c.14.48,2.41,2,3.15,2.94.22.36.78,1.8,1.6,1.71a4.48,4.48,0,0,0,2-.54c.13-.22.83-2.29.83-2.29a8.85,8.85,0,0,0,1.61-1,2.38,2.38,0,0,0,.63-1.89c-.11-.75-1-4.39-1.12-5.34s1.87-4,6.42-9.15,9.56-8.21,13.91-13.21C72.3,59.93,74,58.2,74,58.2c3.07-1.38,8.49-4.64,8.49-4.64L77.84,41.48S73.37,44,69.84,46.4Z"/><path class="cls-5" d="M91,134.44s2.77,1.38,7.43-1.12,36.79-20.9,38.34-21.76.26-4.71-1.72-5.49a6.88,6.88,0,0,0-4.71.26c-1,.26-11.79,4.32-16.45,5.23s-8.51,0-16.58,3.71S87.16,124.68,87.55,128,89.92,134.15,91,134.44Z"/><path class="cls-6" d="M87.55,128c.39,3.32,2.37,6.14,3.41,6.43,0,0,2.3,1.14,6.22-.54,1-4.19,2-11.81-.64-18.26C89.08,119.39,87.17,124.79,87.55,128Z"/><path class="cls-4" d="M67.82,119.63c-1.12,1.36-3.23,4.54-3.85,5.54s-3.55,5.64-3.55,5.64l11.85,9.36s1.61-3.6,2-4.38a68.41,68.41,0,0,1,4.92-5l4-2.82s-2.3-7.19-12.34-11.14Z"/><path class="cls-7" d="M84.83,131.1s1,2.78,6,5.5c6-9.26,9.46-21.18,9.46-21.18H94.48Z"/><path class="cls-8" d="M77.32,95.32s-.48,5.7-.39,9.07c-3.72,5.78-8.16,13.08-9.11,15.24,0,0,1.64-.21,4,1.81s8.34,8.12,8.34,8.12l-1,1.21A17.55,17.55,0,0,0,87.85,135c.91-1.86,4.15-8.16,4.15-8.16S109.12,111,112.42,106s3.89-13.54,3.89-13.54H91.18Z"/><path class="cls-7" d="M79.22,130.77A17.55,17.55,0,0,0,87.85,135l-7.68-5.4Z"/><path class="cls-7" d="M77.32,95.32s-.48,5.7-.39,9.07l7.2-10.46Z"/><path class="cls-9" d="M83.11,30.57c-5.92,7-16.35,17.28-16.35,17.28s3.95,7.46,9.49,10.64a54.86,54.86,0,0,0,9.55-8S86.77,37,83.11,30.57Z"/><path class="cls-5" d="M92.08,25.71s-9,3.57-9,4.86S79,59.46,79.65,78.24C77.9,88.28,76,96.57,76.28,97s6.15,1.56,17.23-.65,12.89-2.52,13.93-2.39,9,3.37,9.58,3.11,1.94-8.68,0-22c4.79-10.88,10.56-24.87,10.56-24.87s11.53-.52,12.24-.58,3.89-4.08,4.6-9.07,1-6.73.58-6.8-19.17-3.5-20.85-3.88-18.08-5.38-18.08-5.38A15.41,15.41,0,0,0,92.08,25.71Z"/><path class="cls-9" d="M117,75c4.79-10.88,10.56-24.87,10.56-24.87s-9.39,4.15-11.72,5.44C115.4,60.56,117,75,117,75Z"/><path class="cls-10" d="M106.07,24.42a15.41,15.41,0,0,0-14,1.29l-1.69.7a11.27,11.27,0,0,0,.21,5L93,38.9s3.24.22,5.9.71c4.82-1.81,11.4-7.51,11.79-13.79Z"/><path class="cls-6" d="M93.16,32.41c.74,1.6,2,4.49,2.68,4.53S101.41,35.13,104,32a10.75,10.75,0,0,0,2.38-6.7l-3.29-2Z"/><path class="cls-4" d="M84.05,14.57a25.07,25.07,0,0,0,.46,6.83A10,10,0,0,1,85,24.2c0,.95-.58,3.57-.36,3.87a9.41,9.41,0,0,0,2.52.61s1.93,4.46,2.24,5.3a1.48,1.48,0,0,0,2,.81c.93-.26,7.79-3.61,9.58-5.59a14.09,14.09,0,0,0,2.59-5.14s2.25.2,3.82-3.32,1.7-12.92-2.57-16.8S92.2.73,88.6,4,84.37,11.14,84.05,14.57Z"/><path class="cls-8" d="M84,15.64s5.09-3,6.28-3.49,1.74-.27,2,.19.92,2.9,1.35,3.06,3.67-.3,3.87-.06,2.11,5.52,2.11,5.52a8.84,8.84,0,0,0,1.58-.68,13.67,13.67,0,0,1,.5-2.79c.38-.69,1.82-1.51,2.19-1.27s2.13,1.33,2.32,2.69-1.39,4.62-2.58,5.26c.9.47,2.69,1.25,2.69,1.25A18.76,18.76,0,0,0,109.88,17a19.61,19.61,0,0,0-1.63-11.6A7.85,7.85,0,0,0,105.6,3s-4.22-3-7.54-3A17,17,0,0,0,86.9,3.89a10.35,10.35,0,0,0-3.77,7.94A29.84,29.84,0,0,0,84,15.64Z"/><path class="cls-10" d="M93,38.38h-.2c-4.1,0-8.48,1.92-11,3.24,0,.42-.09.83-.14,1.26,2.29-1.24,7-3.47,11.15-3.47H93c5.92.1,15.6,2.09,31.56,17.92.15-.35.29-.7.44-1C109,40.48,99.1,38.48,93,38.38Z"/><path class="cls-9" d="M87.94,89.06s-5.52-7-8.29-19.66c-.09,3.06-.1,6,0,8.84,0,.09,0,.17-.05.26A23.48,23.48,0,0,0,87.94,89.06Z"/><path class="cls-5" d="M60.8,130.71c3.89-.33,9.91,4.27,11.72,8.81-2.26,6.08-5.7,10.42-11,15.41s-21.44,20-22.73,21.57-2.4,2.53-4,2.46-6-3.24-3.82-6.61S47.2,149.62,50.7,144.18s9.16-12.63,9.42-13S60.31,130.72,60.8,130.71Z"/><path class="cls-8" d="M35.22,174.34c-.26-1.86-.92-4.38-2.56-4.52s-6.17,1.07-9.58,1.28a58.52,58.52,0,0,1-7.73.09c-.95-.13-2.07,1.21-1.55,2.68a9.69,9.69,0,0,0,5.48,5.57c3.68,1.68,7.78,2.07,9.63,2.93s5.66,2.85,6.78,3.07,1.82-.91,2-1.77,1.38-5.22,1.08-6-2-.49-2.59-1.1A6.12,6.12,0,0,1,35.22,174.34Z"/><path class="cls-8" d="M135.68,112.15c.55.48,4.21-.38,6.71-.9a33.23,33.23,0,0,1,9.07-.51c2,.34,3.71,1.18,4.36.67s.39-2.36,0-3.18-2.51-4.14-5.7-5.09-7.73-.82-9.37-1.34-5.92-2.12-6.74-2.16a2.75,2.75,0,0,0-2.11,1.81c-.18.74-2.14,4.47-1.85,5a6.91,6.91,0,0,1,4.31,2.08C135.48,109.92,135,111.54,135.68,112.15Z"/></g></g></svg>